<?xml version="1.0" encoding="UTF-8"?>
<svg id="Layer_1" data-name="Layer 1" xmlns="http://www.w3.org/2000/svg" viewBox="0 0 528.6 173.03">
  <defs>
    <style>
      .cls-1 {
        fill: #ff5623;
      }

      .cls-1, .cls-2 {
        stroke-width: 0px;
      }
    </style>
  </defs>
  <g>
    <path class="cls-2" d="M26.85,142.35l-9.38-2.77c-2.65-.85-4.63-2.07-5.93-3.67-1.3-1.6-1.95-3.42-1.95-5.48,0-1.75.41-3.26,1.24-4.54.83-1.28,2-2.25,3.52-2.92,1.52-.68,3.29-1.01,5.29-1.01,3.25,0,6.08.81,8.48,2.44,2.4,1.62,4.2,4.01,5.4,7.16l6.3-2.62c-.9-2.6-2.3-4.91-4.2-6.94-1.9-2.02-4.21-3.64-6.94-4.84-2.73-1.2-5.76-1.8-9.11-1.8s-6.34.66-8.96,1.99c-2.62,1.33-4.68,3.15-6.15,5.47-1.48,2.33-2.21,5.01-2.21,8.06,0,3.5,1.07,6.6,3.23,9.3,2.15,2.7,5.25,4.68,9.3,5.92l10.27,3.15c2.55.7,4.49,1.74,5.81,3.11,1.32,1.38,1.99,3.24,1.99,5.59,0,1.7-.46,3.19-1.39,4.46-.93,1.28-2.21,2.26-3.86,2.96-1.65.7-3.58,1.05-5.77,1.05-3.6,0-6.74-.96-9.41-2.89-2.68-1.92-4.69-4.69-6.04-8.29l-6.38,2.62c.9,2.85,2.37,5.43,4.42,7.72,2.05,2.3,4.55,4.11,7.5,5.44,2.95,1.32,6.2,1.99,9.75,1.99s6.86-.66,9.64-1.99,4.95-3.16,6.52-5.51c1.58-2.35,2.36-5.05,2.36-8.1,0-3.7-1.12-6.8-3.38-9.3-2.25-2.5-5.58-4.42-9.98-5.78Z"/>
    <path class="cls-2" d="M67.95,166.2c-1.65,0-2.98-.29-3.98-.86-1-.57-1.71-1.36-2.14-2.36-.43-1-.64-2.17-.64-3.52v-21.08h9.08v-6.67h-9.08v-9.3h-6.98v3.3c0,1.8-.52,3.25-1.57,4.35-1.05,1.1-2.48,1.65-4.28,1.65h-1.5v6.67h7.35v21.3c0,4.1,1.06,7.28,3.19,9.53,2.12,2.25,5.16,3.38,9.11,3.38.55,0,1.22-.04,2.02-.11.8-.08,1.52-.19,2.17-.34v-6.15c-.45.05-.94.1-1.46.15-.52.05-.96.08-1.31.08Z"/>
    <path class="cls-2" d="M104.1,132.56c-2.35-1.17-5.08-1.76-8.18-1.76-2.4,0-4.7.43-6.9,1.28-2.2.85-4.12,2.01-5.77,3.49-1.65,1.48-2.85,3.14-3.6,4.99l6.08,3.15c.85-1.95,2.16-3.51,3.94-4.69,1.77-1.17,3.81-1.76,6.11-1.76,2.65,0,4.79.69,6.41,2.06,1.62,1.38,2.44,3.16,2.44,5.36v1.85l-13.8,2.28c-3,.5-5.49,1.35-7.46,2.55-1.98,1.2-3.43,2.66-4.35,4.39-.93,1.73-1.39,3.66-1.39,5.81s.57,4.24,1.73,5.96c1.15,1.72,2.74,3.08,4.76,4.05,2.03.97,4.36,1.46,7.01,1.46,2.3,0,4.42-.35,6.38-1.05,1.95-.7,3.65-1.65,5.1-2.85.83-.68,1.54-1.44,2.17-2.25v5.25h6.83v-27.45c0-2.75-.66-5.16-1.99-7.24-1.33-2.07-3.16-3.7-5.51-4.88ZM103.01,161.1c-1.08,1.85-2.55,3.31-4.43,4.39-1.88,1.08-4.09,1.61-6.64,1.61-2,0-3.66-.55-4.99-1.65-1.33-1.1-1.99-2.48-1.99-4.12,0-1.75.59-3.23,1.76-4.42,1.17-1.2,3.06-2.03,5.66-2.48l12.23-2.05v2.57c0,2.25-.54,4.3-1.61,6.15Z"/>
    <polygon class="cls-2" points="156.9 131.7 147.98 131.7 129.38 150.69 129.38 115.35 122.4 115.35 122.4 172.13 129.38 172.13 129.38 159.95 136.28 152.73 149.7 172.13 157.95 172.13 141.38 147.98 156.9 131.7"/>
    <path class="cls-2" d="M189.08,132.56c-2.35-1.17-5.08-1.76-8.18-1.76-2.4,0-4.7.43-6.9,1.28-2.2.85-4.12,2.01-5.77,3.49-1.65,1.48-2.85,3.14-3.6,4.99l6.08,3.15c.85-1.95,2.16-3.51,3.94-4.69,1.77-1.17,3.81-1.76,6.11-1.76,2.65,0,4.79.69,6.41,2.06,1.62,1.38,2.44,3.16,2.44,5.36v1.85l-13.8,2.28c-3,.5-5.49,1.35-7.46,2.55-1.98,1.2-3.43,2.66-4.35,4.39-.93,1.73-1.39,3.66-1.39,5.81s.57,4.24,1.73,5.96c1.15,1.72,2.74,3.08,4.76,4.05,2.03.97,4.36,1.46,7.01,1.46,2.3,0,4.42-.35,6.38-1.05,1.95-.7,3.65-1.65,5.1-2.85.83-.68,1.54-1.44,2.17-2.25v5.25h6.83v-27.45c0-2.75-.66-5.16-1.99-7.24-1.33-2.07-3.16-3.7-5.51-4.88ZM187.99,161.1c-1.08,1.85-2.55,3.31-4.43,4.39-1.88,1.08-4.09,1.61-6.64,1.61-2,0-3.66-.55-4.99-1.65-1.33-1.1-1.99-2.48-1.99-4.12,0-1.75.59-3.23,1.76-4.42,1.17-1.2,3.06-2.03,5.66-2.48l12.23-2.05v2.57c0,2.25-.54,4.3-1.61,6.15Z"/>
    <path class="cls-2" d="M224.48,166.2c-1.65,0-2.98-.29-3.98-.86-1-.57-1.71-1.36-2.14-2.36-.43-1-.64-2.17-.64-3.52v-21.08h9.08v-6.67h-9.08v-9.3h-6.98v3.3c0,1.8-.52,3.25-1.57,4.35-1.05,1.1-2.48,1.65-4.28,1.65h-1.5v6.67h7.35v21.3c0,4.1,1.06,7.28,3.19,9.53,2.12,2.25,5.16,3.38,9.11,3.38.55,0,1.22-.04,2.02-.11.8-.08,1.52-.19,2.17-.34v-6.15c-.45.05-.94.1-1.46.15-.52.05-.96.08-1.31.08Z"/>
    <path class="cls-2" d="M267.11,136.76c-1.63-1.83-3.6-3.27-5.92-4.35-2.33-1.07-4.99-1.61-7.99-1.61-3.7,0-7.04.91-10.01,2.74-2.98,1.83-5.33,4.31-7.05,7.46s-2.59,6.75-2.59,10.8.87,7.61,2.62,10.84c1.75,3.22,4.15,5.76,7.2,7.61,3.05,1.85,6.52,2.78,10.42,2.78,2.8,0,5.34-.45,7.61-1.35,2.27-.9,4.25-2.11,5.93-3.64,1.67-1.52,2.91-3.21,3.71-5.06l-5.85-3c-1.15,1.95-2.65,3.55-4.5,4.8-1.85,1.25-4.12,1.88-6.82,1.88-2.45,0-4.71-.61-6.79-1.84-2.08-1.22-3.68-2.95-4.8-5.17-.85-1.68-1.32-3.57-1.41-5.66h30.93c.1-.6.19-1.24.26-1.91.07-.67.11-1.29.11-1.84,0-2.5-.44-4.91-1.31-7.24-.88-2.33-2.13-4.4-3.75-6.22ZM246.75,138.83c1.95-1.2,4.1-1.8,6.45-1.8s4.45.6,6.3,1.8c1.85,1.2,3.25,2.83,4.2,4.88.61,1.31.93,2.74.96,4.27h-23.63c.21-1.46.6-2.8,1.18-4.01,1.07-2.22,2.59-3.94,4.54-5.14Z"/>
    <path class="cls-2" d="M291.67,132.94c-1.5.86-2.69,2.08-3.6,3.64v-4.87h-6.82v40.42h6.98v-24.08c0-3.25.87-5.76,2.62-7.54,1.75-1.77,4.05-2.66,6.9-2.66h3.53v-6.6h-2.47c-2.8,0-5.18.56-7.12,1.69Z"/>
    <path class="cls-2" d="M336.64,124.95c3.02-1.85,6.49-2.78,10.39-2.78s7.15.96,9.9,2.89c2.75,1.93,4.77,4.44,6.08,7.54l6.75-3.07c-.9-2.45-2.41-4.75-4.54-6.9-2.13-2.15-4.73-3.9-7.8-5.25-3.07-1.35-6.54-2.03-10.39-2.03s-7.6.71-10.95,2.14c-3.35,1.42-6.25,3.44-8.7,6.04-2.45,2.6-4.35,5.65-5.7,9.15-1.35,3.5-2.02,7.35-2.02,11.55s.67,7.98,2.02,11.48c1.35,3.5,3.26,6.55,5.74,9.15,2.48,2.6,5.38,4.61,8.7,6.04s6.96,2.14,10.91,2.14,7.31-.68,10.39-2.03c3.08-1.35,5.67-3.1,7.8-5.25,2.12-2.15,3.64-4.45,4.54-6.9l-6.75-3.07c-1.3,3.1-3.33,5.61-6.08,7.54-2.75,1.93-6.05,2.89-9.9,2.89s-7.36-.92-10.39-2.78c-3.03-1.85-5.39-4.42-7.09-7.72-1.7-3.3-2.55-7.12-2.55-11.48s.85-8.25,2.55-11.55c1.7-3.3,4.06-5.87,7.09-7.72Z"/>
    <rect class="cls-2" x="378.9" y="115.35" width="6.97" height="56.78"/>
    <path class="cls-2" d="M426.45,133.54c-3.15-1.82-6.67-2.74-10.58-2.74s-7.5.93-10.65,2.78c-3.15,1.85-5.64,4.35-7.46,7.5-1.83,3.15-2.74,6.75-2.74,10.8s.92,7.68,2.77,10.88c1.85,3.2,4.35,5.71,7.5,7.54,3.15,1.83,6.68,2.74,10.58,2.74s7.26-.91,10.39-2.74c3.12-1.82,5.64-4.32,7.54-7.5,1.9-3.17,2.85-6.81,2.85-10.91s-.91-7.72-2.74-10.88c-1.83-3.15-4.31-5.64-7.46-7.46ZM427.46,159.23c-1.18,2.2-2.78,3.93-4.8,5.18-2.03,1.25-4.29,1.88-6.79,1.88s-4.84-.62-6.86-1.88-3.64-2.97-4.84-5.18c-1.2-2.2-1.8-4.65-1.8-7.35s.6-5.19,1.8-7.31c1.2-2.12,2.81-3.83,4.84-5.1,2.03-1.28,4.31-1.91,6.86-1.91s4.76.64,6.79,1.91c2.02,1.27,3.62,2.97,4.8,5.1,1.17,2.13,1.76,4.56,1.76,7.31s-.59,5.15-1.76,7.35Z"/>
    <path class="cls-2" d="M471.37,155.63c0,2.2-.41,4.1-1.24,5.7-.83,1.6-1.98,2.83-3.45,3.67-1.47.85-3.16,1.28-5.06,1.28s-3.59-.42-5.06-1.28c-1.47-.85-2.62-2.03-3.45-3.53-.83-1.5-1.24-3.25-1.24-5.25v-24.52h-6.97v25.27c0,3.15.64,5.94,1.91,8.36,1.28,2.43,3.08,4.31,5.4,5.66s4.94,2.03,7.84,2.03,5.56-.71,7.84-2.14c1.55-.97,2.78-2.2,3.71-3.69v4.93h6.83v-40.42h-7.05v23.92Z"/>
    <path class="cls-2" d="M521.55,115.35v21.76c-1.35-1.68-3.02-3.07-5.03-4.17-2.6-1.42-5.58-2.14-8.92-2.14-3.8,0-7.21.93-10.24,2.78-3.03,1.85-5.41,4.36-7.16,7.54-1.75,3.18-2.62,6.79-2.62,10.84s.87,7.53,2.62,10.72c1.75,3.2,4.14,5.73,7.16,7.58,3.02,1.85,6.44,2.78,10.24,2.78,3.3,0,6.29-.73,8.96-2.18,2.15-1.17,3.89-2.73,5.21-4.67v5.95h6.83v-56.78h-7.05ZM519.78,159.26c-1.18,2.17-2.76,3.89-4.76,5.14-2,1.25-4.28,1.88-6.83,1.88s-4.83-.62-6.83-1.88-3.58-2.96-4.72-5.14c-1.15-2.17-1.72-4.61-1.72-7.31s.57-5.26,1.72-7.39c1.15-2.12,2.74-3.83,4.76-5.1,2.02-1.28,4.29-1.91,6.79-1.91s4.83.63,6.83,1.88c2,1.25,3.59,2.96,4.76,5.14,1.17,2.17,1.76,4.64,1.76,7.39s-.59,5.14-1.76,7.31Z"/>
  </g>
  <path class="cls-1" d="M345.46,42.96c-8.65-15.63-30.14-22.8-48.12-18.08-1.89.5-4.01-.69-4.94-2.77-3.96-8.83-12.82-18.66-26.26-21.57-27.6-4.55-33.88,21.4-33.88,21.4,3.19-5.37,13.7-12.48,28.56-11.02,14.32,1.41,20.37,13.35,21.43,15.73,3.18,7.1,10.71,10.87,17.92,8.99,15.66-4.11,29.51,4.68,34.37,13.45,4.65,8.41,3.89,20.45-4.81,28.6-5.25,4.92-11.57,6.13-18.75,4.64-13.85-2.86-30.92-15.71-49.7-31.1-2.58-2.11-5.1-4.18-7.56-6.15-19.33-15.53-34.3-17-43.47-15.48-9.13,1.51-18.35,6.31-24.42,13.57-11.66,13.95-10.41,49.96,22.5,52.78,29.28,2.51,51.75-23,51.75-23-26.45,20.7-56.91,16.42-65.3-.64-6.73-13.68,7.08-49.96,51.97-18.57,2.55,1.79,4.92,4,7.47,6.09,25.78,21.13,59.39,48.19,83.11,25.98,3.91-3.67,7.06-8.18,9.17-13.12,3.98-9.32,4.25-20.16-1.04-29.73h0Z"/>
</svg>