<svg id="Layer_1" data-name="Layer 1" xmlns="http://www.w3.org/2000/svg" xmlns:xlink="http://www.w3.org/1999/xlink" viewBox="0 0 32 32"><defs><style>.cls-1{fill:#373435;}.cls-2{fill:url(#linear-gradient);}.cls-3{fill:#fff;}.cls-4{fill:url(#linear-gradient-2);}.cls-5{fill:url(#linear-gradient-3);}.cls-6{fill:url(#linear-gradient-4);}.cls-7{fill:url(#linear-gradient-5);}.cls-8{fill:url(#linear-gradient-6);}.cls-9{fill:url(#linear-gradient-7);}.cls-10{fill:url(#linear-gradient-8);}</style><linearGradient id="linear-gradient" x1="0.61" y1="-4874.04" x2="31.39" y2="-4874.04" gradientTransform="matrix(1, 0, 0, -1, 0, -4858.04)" gradientUnits="userSpaceOnUse"><stop offset="0" stop-color="#fa8303"/><stop offset="1" stop-color="#f4a705"/></linearGradient><linearGradient id="linear-gradient-2" x1="15.02" y1="-4877.27" x2="17.13" y2="-4877.27" xlink:href="#linear-gradient"/><linearGradient id="linear-gradient-3" x1="12.62" y1="-4876.48" x2="14.46" y2="-4876.48" xlink:href="#linear-gradient"/><linearGradient id="linear-gradient-4" x1="12.4" y1="-4873.64" x2="14.11" y2="-4873.64" xlink:href="#linear-gradient"/><linearGradient id="linear-gradient-5" x1="17.9" y1="-4873.65" x2="19.56" y2="-4873.65" xlink:href="#linear-gradient"/><linearGradient id="linear-gradient-6" x1="17.57" y1="-4876.45" x2="19.31" y2="-4876.45" xlink:href="#linear-gradient"/><linearGradient id="linear-gradient-7" x1="16.56" y1="-4871.82" x2="18.28" y2="-4871.82" xlink:href="#linear-gradient"/><linearGradient id="linear-gradient-8" x1="13.71" y1="-4871.81" x2="15.39" y2="-4871.81" xlink:href="#linear-gradient"/></defs><g id="Layer_2" data-name="Layer 2"><g id="Layer_1-2" data-name="Layer 1-2"><path class="cls-1" d="M16.09,1l.17.09c2.26,1.1,4.53,2.22,6.79,3.31,1.71.83,3.43,1.64,5.14,2.45a.38.38,0,0,1,.25.31c.18.79.36,1.58.53,2.37.32,1.44.63,2.87,1,4.31.4,1.78.82,3.55,1.24,5.33.07.32.14.64.22.95v.26l-.15.19c-1.42,1.76-2.85,3.52-4.26,5.29s-2.64,3.34-4,5a.49.49,0,0,1-.25.2h-.93l-4.3,0h-.06l-8,0h0c-.27,0-.28,0-.47-.25C7.55,29,6.17,27.22,4.77,25.46s-2.68-3.33-4-5l-.09-.13a.28.28,0,0,1,0-.2L1.13,18q1.16-4.81,2.21-9.66c.09-.42.19-.83.28-1.24a.33.33,0,0,1,.17-.24l.11,0,6-2.85,6-2.9L16,1h.13m.1-.4h-.34l-.1.06,0,0h0l-1.76.86L9.72,3.57l-4.16,2-1.84.87,0,0-.06,0a.71.71,0,0,0-.4.52c0,.18-.08.36-.12.54s-.1.47-.16.7c-.75,3.44-1.48,6.6-2.2,9.65-.09.34-.17.69-.25,1S.31,19.66.22,20a.65.65,0,0,0,.09.51l.11.15v0l1.25,1.55,2.77,3.45,2.91,3.69c.42.52.84,1.07,1.26,1.6h0a1.11,1.11,0,0,0,.33.32.94.94,0,0,0,.46.08H22.88a.93.93,0,0,0,.46-.33c.35-.46.71-.92,1.06-1.36,1-1.2,1.93-2.44,2.9-3.65s1.95-2.43,2.91-3.61l1.35-1.68.11-.14,0-.06.09-.11v-.43l0-.05-.06-.3c0-.22-.11-.43-.16-.65-.12-.55-.25-1.11-.38-1.64l-.86-3.7c-.22-1-.45-2-.66-3-.1-.43-.2-.88-.29-1.32-.05-.21-.1-.42-.14-.63C29.1,8.22,29,7.63,28.84,7a.83.83,0,0,0-.47-.59L27.3,6C26,5.31,24.58,4.66,23.23,4L18.45,1.68l-2-1-.11,0,0,0Z"/><path class="cls-2" d="M31.17,19.14c-.42-1.78-.84-3.56-1.24-5.33-.33-1.44-.64-2.87-1-4.31-.18-.79-.35-1.58-.52-2.37a.42.42,0,0,0-.25-.31C26.48,6,24.76,5.2,23.05,4.37c-2.26-1.09-4.52-2.2-6.79-3.31L16.09,1H16L15.88,1l-6,2.9-6,2.85-.11,0a.33.33,0,0,0-.17.24c-.09.41-.19.83-.28,1.24C2.63,11.54,1.9,14.76,1.13,18L.62,20.14a.24.24,0,0,0,0,.2l.09.13c1.34,1.66,2.69,3.32,4,5S7.55,29,8.94,30.76c.2.25.2.25.51.25l8,0,4.36,0L22,31h.74a.49.49,0,0,0,.25-.2c1.32-1.67,2.63-3.34,4-5s2.84-3.53,4.26-5.29l.15-.19v-.26C31.31,19.77,31.24,19.46,31.17,19.14ZM20.89,25.65h0l-.1.1a9.49,9.49,0,0,1-12.61-.23,9.36,9.36,0,0,1-2.94-5.48,8.35,8.35,0,0,1-.12-1.58c0-.06,0-.11,0-.18-.32,0-.64,0-1,0,.05-.1,1.62-1.55,1.81-1.69.1.05,1.78,1.58,1.85,1.69h-1a1.37,1.37,0,0,0,0,.19A8.63,8.63,0,0,0,8.75,24,8.56,8.56,0,0,0,14,27.19a8.67,8.67,0,0,0,6.68-1.44l.16-.09h0l0,0v0Zm2-7.67a.5.5,0,0,1-.24.09,1.15,1.15,0,0,1-.37,0c-.31-.05-.62-.13-.93-.19-.08,0-.18-.05-.25.05a.14.14,0,0,1-.11,0l-.41,0c-.13,0-.14,0-.18.11a4.69,4.69,0,0,1-1.65,2.25l-.1.08.06.15L19,21c0,.06.05.13,0,.18s0,.1,0,.16l.32.59c.06.12.12.24.17.36a.92.92,0,0,1,.05.28.27.27,0,0,1-.42.24.88.88,0,0,1-.25-.22c-.08-.13-.16-.27-.23-.41l-.26-.51a.1.1,0,0,0-.11-.07.15.15,0,0,1-.17-.08L18,21.38,17.78,21l-.07-.12a4.77,4.77,0,0,1-3.31.06l-.08.12-.25.4a.42.42,0,0,1-.25.2.34.34,0,0,0-.09.08l-.39.67a2.75,2.75,0,0,1-.23.33.51.51,0,0,1-.24.17.3.3,0,0,1-.37-.19v0a.51.51,0,0,1,0-.32c.05-.11.11-.22.17-.33s.25-.4.37-.61a.19.19,0,0,0,0-.18.29.29,0,0,1,0-.24c.08-.14.15-.29.22-.43s0-.09.05-.13c-.21-.17-.42-.33-.61-.51a4.88,4.88,0,0,1-.52-.59,5.74,5.74,0,0,1-.43-.66c-.12-.23-.21-.48-.33-.73h-.09l-.57.11c-.13,0-.13,0-.19-.1l0-.07h-.11L9.82,18a1.72,1.72,0,0,1-.39,0l-.16,0c-.13,0-.24-.1-.26-.25a.31.31,0,0,1,.19-.33,1.39,1.39,0,0,1,.44-.13l.79-.16c.05,0,.1,0,.11-.09s.08-.15.17-.17l.42-.07c.18,0,.18,0,.17-.21a4.64,4.64,0,0,1,.46-2.17c.08-.17.18-.33.27-.49s.06-.09,0-.16-.22-.2-.33-.3-.08-.08-.06-.15,0-.08-.06-.11l-.78-.62a2,2,0,0,1-.27-.23.43.43,0,0,1-.13-.26.26.26,0,0,1,.2-.3.47.47,0,0,1,.31,0,1.2,1.2,0,0,1,.4.26c.21.22.47.38.7.58a.14.14,0,0,0,.15,0s.09,0,.13,0l.35.25.13.08.11-.09a4.68,4.68,0,0,1,2.46-1.15c.13,0,.13,0,.15-.15l0-.49c0-.07,0-.13.08-.16s.05-.08.05-.13c0-.29,0-.58,0-.88a1.43,1.43,0,0,1,0-.46.51.51,0,0,1,.1-.21.27.27,0,0,1,.49,0,.9.9,0,0,1,.08.28,2.81,2.81,0,0,1,0,.29c0,.31,0,.61,0,.92a.21.21,0,0,0,.08.19s0,.08.05.12l0,.5c0,.12,0,.13.14.15A4.64,4.64,0,0,1,19.15,13l.09.08.13-.08c.12-.08.23-.17.36-.24a.15.15,0,0,1,.12,0c.06,0,.1,0,.15,0a7.39,7.39,0,0,0,.75-.61A1.73,1.73,0,0,1,21,11.9a.52.52,0,0,1,.32-.07.27.27,0,0,1,.25.37.65.65,0,0,1-.13.23,3.11,3.11,0,0,1-.28.23l-.75.6a.14.14,0,0,0-.06.11.26.26,0,0,1-.09.17l-.29.25-.11.07A1.46,1.46,0,0,0,20,14a4.7,4.7,0,0,1,.69,2.71c0,.13,0,.14.11.17l.38.1a.21.21,0,0,1,.15.09.15.15,0,0,0,.11.08l.86.16a3,3,0,0,1,.43.1.68.68,0,0,1,.23.14A.27.27,0,0,1,22.91,18Zm4.85-2.83-1.12,1-.49.46-.12.09c-.12-.07-1.78-1.59-1.83-1.69.32,0,.63,0,1,0,0-.06,0-.11,0-.17A8.67,8.67,0,0,0,23,8.94a8.53,8.53,0,0,0-5.16-2.85,8.67,8.67,0,0,0-6.55,1.48l-.13.09a9.36,9.36,0,0,1,8.94-2,9.25,9.25,0,0,1,5,3.52A9.38,9.38,0,0,1,26.88,15h1C27.84,15.1,27.8,15.12,27.76,15.15Z"/><path class="cls-3" d="M22.93,17.56a.64.64,0,0,0-.22-.14,3.34,3.34,0,0,0-.43-.1l-.87-.16a.2.2,0,0,1-.1-.08.25.25,0,0,0-.15-.1l-.38-.09c-.13,0-.12,0-.12-.17A4.55,4.55,0,0,0,20,14l-.08-.15.11-.07.28-.25a.25.25,0,0,0,.1-.17.13.13,0,0,1,.06-.11l.75-.6a2,2,0,0,0,.27-.23.68.68,0,0,0,.14-.23.28.28,0,0,0-.25-.37.52.52,0,0,0-.32.07,1.73,1.73,0,0,0-.28.19,8.69,8.69,0,0,1-.75.61c-.05,0-.09.06-.15,0a.22.22,0,0,0-.13,0l-.35.25-.13.08L19.15,13a4.64,4.64,0,0,0-2.53-1.18c-.13,0-.14,0-.14-.15s0-.33,0-.5,0-.1-.05-.12a.21.21,0,0,1-.08-.19c0-.31,0-.61,0-.92a2.81,2.81,0,0,0,0-.29.9.9,0,0,0-.08-.28.28.28,0,0,0-.5,0,.67.67,0,0,0-.09.21,1.44,1.44,0,0,0,0,.46c0,.3,0,.59,0,.88,0,0,0,.1-.05.13s-.07.09-.08.16,0,.33,0,.49,0,.13-.14.15A4.74,4.74,0,0,0,12.86,13l-.12.1L12.62,13l-.36-.25s-.07-.06-.12,0a.11.11,0,0,1-.15,0,7.57,7.57,0,0,1-.7-.57,1.2,1.2,0,0,0-.4-.26.5.5,0,0,0-.32,0,.26.26,0,0,0-.19.3.43.43,0,0,0,.13.26,2,2,0,0,0,.27.23c.25.21.52.41.78.62,0,0,.08.06.06.11a.12.12,0,0,0,.06.14l.33.3c.07.07.07.07,0,.16s-.19.33-.27.49a4.58,4.58,0,0,0-.46,2.18c0,.19,0,.17-.17.2l-.42.08c-.09,0-.17.06-.18.17s0,.08-.1.09l-.79.15a1.47,1.47,0,0,0-.45.14.3.3,0,0,0-.18.33c0,.15.13.21.26.25l.16,0a2.58,2.58,0,0,0,.39,0c.23,0,.46-.1.68-.15h.12a.34.34,0,0,0,0,.08c.06.12.06.12.19.1l.57-.11h.09c.11.25.21.5.33.73a5.74,5.74,0,0,0,.43.66,4.22,4.22,0,0,0,.53.59c.18.18.4.33.6.51a.61.61,0,0,1-.05.12c-.07.15-.14.29-.22.44a.33.33,0,0,0,0,.24.19.19,0,0,1,0,.18L12.7,22a2.68,2.68,0,0,0-.18.33.5.5,0,0,0,0,.32.28.28,0,0,0,.34.22h0a.51.51,0,0,0,.24-.17,2.75,2.75,0,0,0,.23-.33l.39-.67a.34.34,0,0,1,.09-.08.4.4,0,0,0,.25-.21c.09-.13.17-.26.25-.4a1,1,0,0,0,.08-.11,4.77,4.77,0,0,0,3.31-.05l.07.11.22.43.07.11a.17.17,0,0,0,.17.09.09.09,0,0,1,.11.06c.09.17.17.35.26.51a4,4,0,0,0,.23.41.75.75,0,0,0,.25.22.26.26,0,0,0,.41-.23.7.7,0,0,0,0-.29,2.31,2.31,0,0,0-.18-.35c-.1-.2-.2-.4-.31-.6a.12.12,0,0,1,0-.15A.15.15,0,0,0,19,21l-.24-.51-.06-.14.1-.09A4.66,4.66,0,0,0,20.42,18c0-.13,0-.13.18-.12l.41.05s.09,0,.11,0,.16-.06.25-.05l.93.2a1.53,1.53,0,0,0,.37,0,.51.51,0,0,0,.24-.1A.26.26,0,0,0,22.93,17.56Zm-10.5-1a3.12,3.12,0,0,1,.5-1.93l.08.07.94.84a.69.69,0,0,1,.11.13.32.32,0,0,1-.1.44h0a1,1,0,0,1-.3.14c-.38.11-.77.2-1.15.3Zm2,1.38s0,.08,0,.12l-.49,1.18a1.29,1.29,0,0,1-.06.12,3.56,3.56,0,0,1-1.24-1.65l.13,0,1-.14a2,2,0,0,1,.42,0c.25,0,.36.17.3.42Zm.42-3.41c-.39-.25-.76-.51-1.14-.77l0,0A3.1,3.1,0,0,1,15.39,13v.11c0,.36,0,.72-.07,1.08a1.23,1.23,0,0,1,0,.2.28.28,0,0,1-.43.18ZM15,19.9l.05-.1c.11-.17.22-.34.32-.51s.25-.42.37-.63a.76.76,0,0,1,.11-.14.33.33,0,0,1,.51,0c.22.4.46.78.7,1.17l.05.11A3.17,3.17,0,0,1,15,19.9Zm2-5.31a.32.32,0,0,1-.38-.28c0-.16,0-.32,0-.48s0-.52-.05-.78V13a3.16,3.16,0,0,1,1.72.78l0,0-1.07.74a.35.35,0,0,1-.14.06Zm1.15,4.69a1.39,1.39,0,0,1-.06-.13l-.47-1a1.42,1.42,0,0,1-.07-.22.28.28,0,0,1,.31-.37l.56.07c.23,0,.46.06.69.09a.86.86,0,0,1,.17,0,3.12,3.12,0,0,1-1.13,1.55Zm1.38-2.72-.13,0-1.13-.3a1.19,1.19,0,0,1-.26-.11.25.25,0,0,1-.1-.36.83.83,0,0,1,.19-.27c.28-.28.58-.54.87-.81l.07,0a3.56,3.56,0,0,1,.49,1.91Z"/><path class="cls-3" d="M27.84,15c0,.08,0,.1-.08.13l-1.12,1-.49.46-.12.09c-.12-.07-1.78-1.59-1.83-1.69.32,0,.63,0,1,0,0-.06,0-.11,0-.17A8.67,8.67,0,0,0,23,8.94a8.5,8.5,0,0,0-5.16-2.85,8.67,8.67,0,0,0-6.55,1.48l-.13.09a9.36,9.36,0,0,1,8.94-2,9.25,9.25,0,0,1,5,3.52A9.38,9.38,0,0,1,26.88,15h1Z"/><path class="cls-3" d="M20.88,25.65a.52.52,0,0,1-.1.11,9.49,9.49,0,0,1-12.61-.23,9.36,9.36,0,0,1-2.94-5.48,8.35,8.35,0,0,1-.12-1.58c0-.06,0-.11,0-.18-.32,0-.64,0-1,0,.05-.1,1.62-1.55,1.81-1.69.1,0,1.78,1.58,1.85,1.69h-1a1.37,1.37,0,0,0,0,.19A8.63,8.63,0,0,0,8.75,24,8.56,8.56,0,0,0,14,27.19a8.67,8.67,0,0,0,6.68-1.44Z"/><path class="cls-4" d="M17.13,19.84A3.17,3.17,0,0,1,15,19.9a.41.41,0,0,1,.05-.09c.1-.18.22-.35.32-.52s.25-.42.37-.63l.1-.14a.34.34,0,0,1,.52,0c.22.4.46.78.7,1.17Z"/><path class="cls-5" d="M14.45,17.94s0,.08,0,.12c-.16.39-.33.79-.49,1.19,0,0,0,.05-.06.11a3.56,3.56,0,0,1-1.24-1.65l.13,0,1-.14a2,2,0,0,1,.42,0C14.4,17.53,14.51,17.69,14.45,17.94Z"/><path class="cls-6" d="M13.94,16.12a1,1,0,0,1-.3.14c-.38.11-.77.2-1.16.3h-.05a3.12,3.12,0,0,1,.5-1.93.5.5,0,0,0,.08.07l.94.85a.43.43,0,0,1,.11.12.33.33,0,0,1-.09.44Z"/><path class="cls-7" d="M19.56,16.56l-.13,0c-.38-.1-.76-.19-1.13-.3a.85.85,0,0,1-.26-.11.25.25,0,0,1-.1-.36.83.83,0,0,1,.19-.27c.28-.28.58-.54.87-.81l.07,0A3.56,3.56,0,0,1,19.56,16.56Z"/><path class="cls-8" d="M19.31,17.73a3.12,3.12,0,0,1-1.13,1.55,1.39,1.39,0,0,1-.06-.13l-.47-1a1.72,1.72,0,0,1-.07-.21.28.28,0,0,1,.31-.38l.56.07.69.09Z"/><path class="cls-9" d="M18.28,13.74a.1.1,0,0,1,0,0l-1.07.74a.38.38,0,0,1-.13.06.32.32,0,0,1-.39-.28c0-.16,0-.32,0-.48s0-.52-.05-.78a.28.28,0,0,1,0-.09A3.16,3.16,0,0,1,18.28,13.74Z"/><path class="cls-10" d="M15.39,13.07c0,.36,0,.72-.07,1.08a.64.64,0,0,1,0,.2.27.27,0,0,1-.42.18c-.39-.25-.76-.51-1.14-.77l0,0A3.1,3.1,0,0,1,15.39,13Z"/></g></g></svg>